<svg id="Layer_1" data-name="Layer 1" xmlns="http://www.w3.org/2000/svg" viewBox="0 0 500 500"><defs><style>.cls-1{fill:#0caea6;}</style></defs><path class="cls-1" d="M103.07,322.34c14.71-14.16,26.84-29.82,39.13-45.35,17-21.53,33.43-43.65,54.19-61.91a75.12,75.12,0,0,1,26-15.42c21-7,39.93,1.42,48.76,21.74,4.89,11.26,5.7,23.12,4.63,35.14-.76,8.47-2,16.89-3.15,26.49,2.41-2.31,4.18-4,5.91-5.66,27.59-27.13,52.38-56.76,77.36-86.24,31.2-36.83,61-74.81,94.12-110,4.33-4.61,8.56-9.39,14-12.67,2.62-1.57,5.67-3.55,8.75-1.16S475,72.73,474.11,76c-1.77,6.14-5.07,11.54-8.19,17C423.83,166.21,379.44,238,328.4,305.48c-13,17.16-27.2,33.29-44.64,46.18-10,7.36-20.58,13.55-33.36,14.34-21.58,1.32-36.36-9.23-42.16-30-1.13-4.07-2.42-8.13-2.21-12.66-2.54.76-3,2.71-4,4.12-17.14,24.36-33.85,49.06-55,70.32-13.56,13.66-28.08,26-46.65,32.44-27.68,9.58-54.21.58-65.93-29.74-5.12-13.24-7.15-27.09-8.45-41.18-1.59-17.33-.92-34.61.25-51.86,1.29-19.19,3.58-38.31,6.4-57.35,2.37-15.93,4-32,9.42-47.35,3.49-9.93,7.86-19.38,14.7-27.51,10.55-12.53,24.94-15.77,39.89-9.38,10,4.25,14.49,12.36,16.32,22.27,2.36,12.72,1.67,25.58-.4,38.22a688.37,688.37,0,0,0-8.44,76.3C103.83,309.19,103.44,315.77,103.07,322.34Z"/></svg>